{
	"asset":{
		"generator":"Khronos glTF Blender I/O v4.5.48",
		"version":"2.0"
	},
	"scene":0,
	"scenes":[
		{
			"name":"Scene",
			"nodes":[
				1
			]
		}
	],
	"nodes":[
		{
			"mesh":0,
			"name":"Casco_corte_completo",
			"rotation":[
				0.70710688829422,
				0,
				0,
				0.7071066498756409
			],
			"scale":[
				0.948697566986084,
				0.948697566986084,
				0.948697566986084
			],
			"translation":[
				-238.30419921875,
				13.379035949707031,
				102.12433624267578
			]
		},
		{
			"children":[
				0
			],
			"name":"Sin_nombre",
			"translation":[
				4.679999828338623,
				0,
				0
			]
		}
	],
	"materials":[
		{
			"doubleSided":true,
			"name":"Material.001",
			"pbrMetallicRoughness":{
				"baseColorFactor":[
					0.2508818507194519,
					0.2508818507194519,
					0.2508818507194519,
					1
				],
				"metallicFactor":0,
				"roughnessFactor":0.5
			}
		}
	],
	"meshes":[
		{
			"name":"meshes[0]",
			"primitives":[
				{
					"attributes":{
						"POSITION":0,
						"NORMAL":1,
						"TEXCOORD_0":2
					},
					"indices":3,
					"material":0
				}
			]
		}
	],
	"accessors":[
		{
			"bufferView":0,
			"componentType":5126,
			"count":30191,
			"max":[
				270.2935485839844,
				0,
				14.75331974029541
			],
			"min":[
				222.12586975097656,
				-219.8337860107422,
				-29.810115814208984
			],
			"type":"VEC3"
		},
		{
			"bufferView":1,
			"componentType":5126,
			"count":30191,
			"type":"VEC3"
		},
		{
			"bufferView":2,
			"componentType":5126,
			"count":30191,
			"type":"VEC2"
		},
		{
			"bufferView":3,
			"componentType":5123,
			"count":59346,
			"type":"SCALAR"
		}
	],
	"bufferViews":[
		{
			"buffer":0,
			"byteLength":362292,
			"byteOffset":0,
			"target":34962
		},
		{
			"buffer":0,
			"byteLength":362292,
			"byteOffset":362292,
			"target":34962
		},
		{
			"buffer":0,
			"byteLength":241528,
			"byteOffset":724584,
			"target":34962
		},
		{
			"buffer":0,
			"byteLength":118692,
			"byteOffset":966112,
			"target":34963
		}
	],
	"buffers":[
		{
			"byteLength":1084804,
			"uri":"barco.bin"
		}
	]
}
