{
	"asset":{
		"generator":"Khronos glTF Blender I/O v4.5.48",
		"version":"2.0"
	},
	"scene":0,
	"scenes":[
		{
			"name":"Scene",
			"nodes":[
				0
			]
		}
	],
	"nodes":[
		{
			"mesh":0,
			"name":"oladeadelantetotalmenteanashe:pCube1",
			"scale":[
				72.4853744506836,
				9.538439750671387,
				106.36936950683594
			],
			"translation":[
				0,
				0.029999999329447746,
				-0.4699999988079071
			]
		}
	],
	"materials":[
		{
			"name":"standardSurface1.014",
			"pbrMetallicRoughness":{
				"metallicFactor":0,
				"roughnessFactor":0.5
			}
		}
	],
	"meshes":[
		{
			"name":"oladeadelantetotalmenteanashe:pCube1",
			"primitives":[
				{
					"attributes":{
						"POSITION":0,
						"NORMAL":1,
						"TEXCOORD_0":2
					},
					"indices":3,
					"material":0
				}
			]
		}
	],
	"accessors":[
		{
			"bufferView":0,
			"componentType":5126,
			"count":6216,
			"max":[
				0.005551443435251713,
				0.010555599816143513,
				0.005244151223450899
			],
			"min":[
				-0.005395077168941498,
				-0.01609729416668415,
				-0.005039547570049763
			],
			"type":"VEC3"
		},
		{
			"bufferView":1,
			"componentType":5126,
			"count":6216,
			"type":"VEC3"
		},
		{
			"bufferView":2,
			"componentType":5126,
			"count":6216,
			"type":"VEC2"
		},
		{
			"bufferView":3,
			"componentType":5123,
			"count":34560,
			"type":"SCALAR"
		}
	],
	"bufferViews":[
		{
			"buffer":0,
			"byteLength":74592,
			"byteOffset":0,
			"target":34962
		},
		{
			"buffer":0,
			"byteLength":74592,
			"byteOffset":74592,
			"target":34962
		},
		{
			"buffer":0,
			"byteLength":49728,
			"byteOffset":149184,
			"target":34962
		},
		{
			"buffer":0,
			"byteLength":69120,
			"byteOffset":198912,
			"target":34963
		}
	],
	"buffers":[
		{
			"byteLength":268032,
			"uri":"Frame1.bin"
		}
	]
}
