{"asset":{"version":"2.0","generator":"babylon.js glTF exporter for Autodesk MAYA 2024.2 v20251111.2"},"scene":0,"scenes":[{"nodes":[0]}],"nodes":[{"mesh":0,"translation":[0.0,0.03,-0.47],"scale":[72.4853745,9.53844,106.36937],"name":"onda_agua_barco:pCube1"}],"meshes":[{"primitives":[{"attributes":{"POSITION":1,"TANGENT":2,"NORMAL":3,"TEXCOORD_0":4},"indices":0,"material":0},{"attributes":{"POSITION":6,"TANGENT":7,"NORMAL":8,"TEXCOORD_0":9},"indices":5,"material":1},{"attributes":{"POSITION":11,"TANGENT":12,"NORMAL":13,"TEXCOORD_0":14},"indices":10,"material":2}],"name":"onda_agua_barco:pCube1"}],"accessors":[{"bufferView":0,"componentType":5123,"count":2400,"type":"SCALAR","name":"accessorIndices"},{"bufferView":1,"componentType":5126,"count":441,"max":[0.00539724575,0.005339761,0.00487078261],"min":[-0.00508393766,-0.0133486353,-0.005],"type":"VEC3","name":"accessorPositions"},{"bufferView":2,"componentType":5126,"count":441,"type":"VEC4","name":"accessorTangents"},{"bufferView":1,"byteOffset":5292,"componentType":5126,"count":441,"type":"VEC3","name":"accessorNormals"},{"bufferView":3,"componentType":5126,"count":441,"type":"VEC2","name":"accessorUVs"},{"bufferView":0,"byteOffset":4800,"componentType":5123,"count":2400,"type":"SCALAR","name":"accessorIndices"},{"bufferView":1,"byteOffset":10584,"componentType":5126,"count":441,"max":[0.005181324,0.01605123,0.00504562259],"min":[-0.00515802437,-0.00334863574,-0.005072078],"type":"VEC3","name":"accessorPositions"},{"bufferView":2,"byteOffset":7056,"componentType":5126,"count":441,"type":"VEC4","name":"accessorTangents"},{"bufferView":1,"byteOffset":15876,"componentType":5126,"count":441,"type":"VEC3","name":"accessorNormals"},{"bufferView":3,"byteOffset":3528,"componentType":5126,"count":441,"type":"VEC2","name":"accessorUVs"},{"bufferView":0,"byteOffset":9600,"componentType":5123,"count":3840,"type":"SCALAR","name":"accessorIndices"},{"bufferView":1,"byteOffset":21168,"componentType":5126,"count":756,"max":[0.005776364,0.01605123,0.0052735866],"min":[-0.00547585543,-0.0133486353,-0.005072078],"type":"VEC3","name":"accessorPositions"},{"bufferView":2,"byteOffset":14112,"componentType":5126,"count":756,"type":"VEC4","name":"accessorTangents"},{"bufferView":1,"byteOffset":30240,"componentType":5126,"count":756,"type":"VEC3","name":"accessorNormals"},{"bufferView":3,"byteOffset":7056,"componentType":5126,"count":756,"type":"VEC2","name":"accessorUVs"}],"bufferViews":[{"buffer":0,"byteLength":17280,"name":"bufferViewScalar"},{"buffer":0,"byteOffset":17280,"byteLength":39312,"byteStride":12,"name":"bufferViewFloatVec3"},{"buffer":0,"byteOffset":56592,"byteLength":26208,"byteStride":16,"name":"bufferViewFloatVec4"},{"buffer":0,"byteOffset":82800,"byteLength":13104,"byteStride":8,"name":"bufferViewFloatVec2"}],"buffers":[{"uri":"wave.bin","byteLength":95904}],"materials":[{"pbrMetallicRoughness":{"baseColorFactor":[0.4,0.4,0.4,1.0],"metallicFactor":0.0,"roughnessFactor":0.5},"name":"standardSurface1"},{"pbrMetallicRoughness":{"baseColorTexture":{"index":0},"metallicRoughnessTexture":{"index":1}},"name":"onda_agua_barco:aiStandardSurface2"},{"pbrMetallicRoughness":{"baseColorTexture":{"index":2},"metallicFactor":0.0,"roughnessFactor":0.2},"name":"onda_agua_barco:aiStandardSurface1"}],"textures":[{"sampler":0,"source":0,"name":"wave_1003_BaseColor.png"},{"sampler":0,"source":1,"name":"51onda_agua_barco_wave_1003_Metallic_1.jpg"},{"sampler":0,"source":2,"name":"wave_1001_BaseColor.png"}],"images":[{"uri":"wave_1003_BaseColor.png"},{"uri":"51onda_agua_barco_wave_1003_Metallic_1.jpg"},{"uri":"wave_1001_BaseColor.png"}],"samplers":[{"magFilter":9729,"minFilter":9987}]}