{
    "asset": {
        "version": "2.0",
        "generator": "Open Asset Import Library (assimp v5.4.0)"
    },
    "extensionsUsed": [
        "KHR_materials_volume",
        "FB_ngon_encoding"
    ],
    "accessors": [
        {
            "bufferView": 0,
            "byteOffset": 0,
            "componentType": 5126,
            "count": 15498,
            "type": "VEC3",
            "max": [
                270.2935485839844,
                0.0,
                14.75331974029541
            ],
            "min": [
                222.12586975097656,
                -219.8337860107422,
                -29.810115814208984
            ]
        },
        {
            "bufferView": 1,
            "byteOffset": 0,
            "componentType": 5126,
            "count": 15498,
            "type": "VEC3",
            "max": [
                1.0,
                1.0,
                1.0
            ],
            "min": [
                -1.0,
                -1.0,
                -1.0
            ]
        },
        {
            "bufferView": 2,
            "byteOffset": 0,
            "componentType": 5126,
            "count": 15498,
            "type": "VEC2",
            "max": [
                0.99853515625,
                1.0
            ],
            "min": [
                0.0,
                0.15557265281677246
            ]
        },
        {
            "bufferView": 3,
            "byteOffset": 0,
            "componentType": 5125,
            "count": 59346,
            "type": "SCALAR",
            "max": [
                15497
            ],
            "min": [
                0
            ]
        }
    ],
    "buffers": [
        {
            "byteLength": 733320,
            "uri": "Sin_nombre_0.bin"
        }
    ],
    "bufferViews": [
        {
            "buffer": 0,
            "byteOffset": 0,
            "byteLength": 185976,
            "target": 34962
        },
        {
            "buffer": 0,
            "byteOffset": 185976,
            "byteLength": 185976,
            "target": 34962
        },
        {
            "buffer": 0,
            "byteOffset": 371952,
            "byteLength": 123984,
            "target": 34962
        },
        {
            "buffer": 0,
            "byteOffset": 495936,
            "byteLength": 237384,
            "target": 34963
        }
    ],
    "materials": [
        {
            "name": "Material",
            "pbrMetallicRoughness": {
                "baseColorFactor": [
                    0.8008357286453247,
                    0.1679285317659378,
                    0.07456353306770325,
                    1.0
                ],
                "metallicFactor": 0.0,
                "roughnessFactor": 0.5
            },
            "doubleSided": true
        }
    ],
    "meshes": [
        {
            "name": "meshes[0]",
            "primitives": [
                {
                    "mode": 4,
                    "material": 0,
                    "indices": 3,
                    "attributes": {
                        "POSITION": 0,
                        "NORMAL": 1,
                        "TEXCOORD_0": 2
                    }
                }
            ]
        }
    ],
    "nodes": [
        {
            "name": "Sin_nombre",
            "children": [
                1
            ]
        },
        {
            "name": "Casco_corte_completo",
            "matrix": [
                0.948697566986084,
                0.0,
                0.0,
                0.0,
                0.0,
                -1.2746592403800605e-7,
                0.9486976861953735,
                0.0,
                0.0,
                -0.9486976861953735,
                -1.2746592403800605e-7,
                0.0,
                -238.30419921875,
                13.379035949707031,
                102.12433624267578,
                1.0
            ],
            "mesh": 0,
            "extras": {
                "name": "Casco_corte_completo"
            }
        }
    ],
    "scenes": [
        {
            "nodes": [
                0
            ]
        }
    ],
    "scene": 0
}