{
	"asset":{
		"generator":"Khronos glTF Blender I/O v4.5.48",
		"version":"2.0"
	},
	"scene":0,
	"scenes":[
		{
			"name":"Scene",
			"nodes":[
				0
			]
		}
	],
	"nodes":[
		{
			"mesh":0,
			"name":"estela_atras:pCube1",
			"scale":[
				89.85808563232422,
				14.737016677856445,
				131.1834716796875
			],
			"translation":[
				0,
				-0.059554681181907654,
				-2.470181941986084
			]
		}
	],
	"materials":[
		{
			"name":"standardSurface1.012",
			"pbrMetallicRoughness":{
				"metallicFactor":0,
				"roughnessFactor":0.5
			}
		}
	],
	"meshes":[
		{
			"name":"estela_atras:pCube1.011",
			"primitives":[
				{
					"attributes":{
						"POSITION":0,
						"NORMAL":1,
						"TEXCOORD_0":2
					},
					"indices":3,
					"material":0
				}
			]
		}
	],
	"accessors":[
		{
			"bufferView":0,
			"componentType":5126,
			"count":4510,
			"max":[
				0.007340861950069666,
				0.017872290685772896,
				0.005035100504755974
			],
			"min":[
				-0.00745747797191143,
				-0.012725792825222015,
				-0.005590127781033516
			],
			"type":"VEC3"
		},
		{
			"bufferView":1,
			"componentType":5126,
			"count":4510,
			"type":"VEC3"
		},
		{
			"bufferView":2,
			"componentType":5126,
			"count":4510,
			"type":"VEC2"
		},
		{
			"bufferView":3,
			"componentType":5123,
			"count":24960,
			"type":"SCALAR"
		}
	],
	"bufferViews":[
		{
			"buffer":0,
			"byteLength":54120,
			"byteOffset":0,
			"target":34962
		},
		{
			"buffer":0,
			"byteLength":54120,
			"byteOffset":54120,
			"target":34962
		},
		{
			"buffer":0,
			"byteLength":36080,
			"byteOffset":108240,
			"target":34962
		},
		{
			"buffer":0,
			"byteLength":49920,
			"byteOffset":144320,
			"target":34963
		}
	],
	"buffers":[
		{
			"byteLength":194240,
			"uri":"Frame5.bin"
		}
	]
}
